<?xml version="1.0" standalone="no"?>
<!DOCTYPE svg PUBLIC "-//W3C//DTD SVG 20010904//EN"
 "http://www.w3.org/TR/2001/REC-SVG-20010904/DTD/svg10.dtd">
<svg version="1.0" xmlns="http://www.w3.org/2000/svg"
 width="240.000000pt" height="240.000000pt" viewBox="0 0 240.000000 240.000000"
 preserveAspectRatio="xMidYMid meet">
<metadata>
Created by potrace 1.14, written by Peter Selinger 2001-2017
</metadata>
<g transform="translate(0.000000,240.000000) scale(0.100000,-0.100000)"
fill="#000000" stroke="none">
<path d="M1000 2383 c-506 -87 -900 -485 -986 -996 -17 -105 -12 -326 11 -432
88 -416 395 -759 800 -894 228 -76 490 -80 720 -10 338 102 619 354 758 679
72 171 93 281 91 495 -2 239 -65 443 -201 648 -49 74 -197 230 -268 283 -111
83 -268 162 -396 198 -155 45 -370 56 -529 29z m365 -136 c220 -39 411 -135
568 -286 469 -451 423 -1211 -98 -1606 -90 -68 -229 -141 -305 -161 -8 -2 -40
-11 -70 -19 -86 -24 -137 -29 -260 -29 -155 0 -227 12 -361 60 -429 153 -715
579 -694 1035 6 127 10 152 41 258 35 115 64 177 130 278 165 253 448 436 729
469 28 4 51 8 53 9 5 5 233 -2 267 -8z"/>
<path d="M588 1464 c-15 -18 -22 -42 -19 -71 2 -29 41 -53 84 -53 60 0 150
-25 216 -61 140 -75 239 -219 256 -374 10 -93 13 -104 43 -119 23 -12 33 -12
58 -1 17 7 34 20 38 30 21 57 -13 230 -67 330 -101 188 -300 319 -507 332 -75
5 -87 3 -102 -13z"/>
<path d="M1602 1460 c-86 -23 -170 -65 -237 -121 -77 -63 -77 -64 -40 -141
l32 -67 39 43 c83 92 200 151 318 162 90 8 111 23 122 81 1 7 -7 24 -18 38
-17 22 -27 25 -81 24 -34 0 -95 -9 -135 -19z"/>
</g>
</svg>
